<svg xmlns="http://www.w3.org/2000/svg" xmlns:xlink="http://www.w3.org/1999/xlink" version="1.1" class="marks" width="782" height="544" viewBox="0 0 782 544"><rect width="782" height="544" fill="white"/><g fill="none" stroke-miterlimit="10" transform="translate(114,39)"><g class="mark-group role-frame root" role="graphics-object" aria-roledescription="group mark container"><g transform="translate(0,0)"><path class="background" aria-hidden="true" d="M0.5,0.5h550v400h-550Z" stroke="#ddd"/><g><g class="mark-group role-axis" role="graphics-symbol" aria-roledescription="axis" aria-label="Y-axis for a discrete scale with 13 values: Amy Williams, Bonnie Brown, Bonnie Williams, Charles Christensen, Erin Robinson, ending with Zachary Brooks"><g transform="translate(0.5,0.5)"><path class="background" aria-hidden="true" d="M0,0h0v0h0Z" pointer-events="none"/><g><g class="mark-rule role-axis-grid" pointer-events="none"><line transform="translate(0,15)" x2="550" y2="0" stroke="#ddd" stroke-width="1" opacity="1"/><line transform="translate(0,46)" x2="550" y2="0" stroke="#ddd" stroke-width="1" opacity="1"/><line transform="translate(0,77)" x2="550" y2="0" stroke="#ddd" stroke-width="1" opacity="1"/><line transform="translate(0,108)" x2="550" y2="0" stroke="#ddd" stroke-width="1" opacity="1"/><line transform="translate(0,138)" x2="550" y2="0" stroke="#ddd" stroke-width="1" opacity="1"/><line transform="translate(0,169)" x2="550" y2="0" stroke="#ddd" stroke-width="1" opacity="1"/><line transform="translate(0,200)" x2="550" y2="0" stroke="#ddd" stroke-width="1" opacity="1"/><line transform="translate(0,231)" x2="550" y2="0" stroke="#ddd" stroke-width="1" opacity="1"/><line transform="translate(0,262)" x2="550" y2="0" stroke="#ddd" stroke-width="1" opacity="1"/><line transform="translate(0,292)" x2="550" y2="0" stroke="#ddd" stroke-width="1" opacity="1"/><line transform="translate(0,323)" x2="550" y2="0" stroke="#ddd" stroke-width="1" opacity="1"/><line transform="translate(0,354)" x2="550" y2="0" stroke="#ddd" stroke-width="1" opacity="1"/><line transform="translate(0,385)" x2="550" y2="0" stroke="#ddd" stroke-width="1" opacity="1"/></g></g><path class="foreground" aria-hidden="true" d="" pointer-events="none" display="none"/></g></g><g class="mark-group role-axis" role="graphics-symbol" aria-roledescription="axis" aria-label="X-axis titled 'Protocol count' for a linear scale with values from 0 to 4"><g transform="translate(0.5,400.5)"><path class="background" aria-hidden="true" d="M0,0h0v0h0Z" pointer-events="none"/><g><g class="mark-rule role-axis-tick" pointer-events="none"><line transform="translate(0,0)" x2="0" y2="5" stroke="#888" stroke-width="1" opacity="1"/><line transform="translate(138,0)" x2="0" y2="5" stroke="#888" stroke-width="1" opacity="1"/><line transform="translate(275,0)" x2="0" y2="5" stroke="#888" stroke-width="1" opacity="1"/><line transform="translate(413,0)" x2="0" y2="5" stroke="#888" stroke-width="1" opacity="1"/><line transform="translate(550,0)" x2="0" y2="5" stroke="#888" stroke-width="1" opacity="1"/></g><g class="mark-text role-axis-label" pointer-events="none"><text text-anchor="start" transform="translate(0,15)" font-family="OpenSans" font-size="10px" fill="#000" opacity="1">0</text><text text-anchor="middle" transform="translate(137.5,15)" font-family="OpenSans" font-size="10px" fill="#000" opacity="1">1</text><text text-anchor="middle" transform="translate(275,15)" font-family="OpenSans" font-size="10px" fill="#000" opacity="1">2</text><text text-anchor="middle" transform="translate(412.5,15)" font-family="OpenSans" font-size="10px" fill="#000" opacity="1">3</text><text text-anchor="end" transform="translate(550,15)" font-family="OpenSans" font-size="10px" fill="#000" opacity="1">4</text></g><g class="mark-rule role-axis-domain" pointer-events="none"><line transform="translate(0,0)" x2="550" y2="0" stroke="#888" stroke-width="1" opacity="1"/></g><g class="mark-text role-axis-title" pointer-events="none"><text text-anchor="middle" transform="translate(275,30)" font-family="OpenSans" font-size="11px" font-weight="bold" fill="#000" opacity="1">Protocol count</text></g></g><path class="foreground" aria-hidden="true" d="" pointer-events="none" display="none"/></g></g><g class="mark-group role-axis" role="graphics-symbol" aria-roledescription="axis" aria-label="Y-axis titled ' ' for a discrete scale with 13 values: Amy Williams, Bonnie Brown, Bonnie Williams, Charles Christensen, Erin Robinson, ending with Zachary Brooks"><g transform="translate(0.5,0.5)"><path class="background" aria-hidden="true" d="M0,0h0v0h0Z" pointer-events="none"/><g><g class="mark-rule role-axis-tick" pointer-events="none"><line transform="translate(0,15)" x2="-5" y2="0" stroke="#888" stroke-width="1" opacity="1"/><line transform="translate(0,46)" x2="-5" y2="0" stroke="#888" stroke-width="1" opacity="1"/><line transform="translate(0,77)" x2="-5" y2="0" stroke="#888" stroke-width="1" opacity="1"/><line transform="translate(0,108)" x2="-5" y2="0" stroke="#888" stroke-width="1" opacity="1"/><line transform="translate(0,138)" x2="-5" y2="0" stroke="#888" stroke-width="1" opacity="1"/><line transform="translate(0,169)" x2="-5" y2="0" stroke="#888" stroke-width="1" opacity="1"/><line transform="translate(0,200)" x2="-5" y2="0" stroke="#888" stroke-width="1" opacity="1"/><line transform="translate(0,231)" x2="-5" y2="0" stroke="#888" stroke-width="1" opacity="1"/><line transform="translate(0,262)" x2="-5" y2="0" stroke="#888" stroke-width="1" opacity="1"/><line transform="translate(0,292)" x2="-5" y2="0" stroke="#888" stroke-width="1" opacity="1"/><line transform="translate(0,323)" x2="-5" y2="0" stroke="#888" stroke-width="1" opacity="1"/><line transform="translate(0,354)" x2="-5" y2="0" stroke="#888" stroke-width="1" opacity="1"/><line transform="translate(0,385)" x2="-5" y2="0" stroke="#888" stroke-width="1" opacity="1"/></g><g class="mark-text role-axis-label" pointer-events="none"><text text-anchor="end" transform="translate(-7,18.384615384615387)" font-family="OpenSans" font-size="10px" fill="#000" opacity="1">Amy Williams</text><text text-anchor="end" transform="translate(-7,49.15384615384616)" font-family="OpenSans" font-size="10px" fill="#000" opacity="1">Bonnie Brown</text><text text-anchor="end" transform="translate(-7,79.92307692307693)" font-family="OpenSans" font-size="10px" fill="#000" opacity="1">Bonnie Williams</text><text text-anchor="end" transform="translate(-7,110.6923076923077)" font-family="OpenSans" font-size="10px" fill="#000" opacity="1">Charles Christensen</text><text text-anchor="end" transform="translate(-7,141.46153846153845)" font-family="OpenSans" font-size="10px" fill="#000" opacity="1">Erin Robinson</text><text text-anchor="end" transform="translate(-7,172.23076923076923)" font-family="OpenSans" font-size="10px" fill="#000" opacity="1">Jacob Phillips</text><text text-anchor="end" transform="translate(-7,203)" font-family="OpenSans" font-size="10px" fill="#000" opacity="1">Jennifer Montgomery</text><text text-anchor="end" transform="translate(-7,233.76923076923077)" font-family="OpenSans" font-size="10px" fill="#000" opacity="1">Larry Sanders</text><text text-anchor="end" transform="translate(-7,264.53846153846155)" font-family="OpenSans" font-size="10px" fill="#000" opacity="1">Nicole Johnson</text><text text-anchor="end" transform="translate(-7,295.30769230769226)" font-family="OpenSans" font-size="10px" fill="#000" opacity="1">Thomas Hansen</text><text text-anchor="end" transform="translate(-7,326.0769230769231)" font-family="OpenSans" font-size="10px" fill="#000" opacity="1">Timothy Stevens</text><text text-anchor="end" transform="translate(-7,356.8461538461538)" font-family="OpenSans" font-size="10px" fill="#000" opacity="1">William Rodriguez</text><text text-anchor="end" transform="translate(-7,387.61538461538464)" font-family="OpenSans" font-size="10px" fill="#000" opacity="1">Zachary Brooks</text></g><g class="mark-rule role-axis-domain" pointer-events="none"><line transform="translate(0,0)" x2="0" y2="400" stroke="#888" stroke-width="1" opacity="1"/></g><g class="mark-text role-axis-title" pointer-events="none"><text text-anchor="middle" transform="translate(-97.923828125,200) rotate(-90) translate(0,-2)" font-family="OpenSans" font-size="11px" font-weight="bold" fill="#000" opacity="1"/></g></g><path class="foreground" aria-hidden="true" d="" pointer-events="none" display="none"/></g></g><g class="mark-symbol role-mark marks" role="graphics-symbol" aria-roledescription="symbol mark container"><path transform="translate(137.5,138.46153846153845)" d="M18.718038452349905,0A18.718038452349905,18.718038452349905,0,1,1,-18.718038452349905,0A18.718038452349905,18.718038452349905,0,1,1,18.718038452349905,0" fill="rgb(246, 224, 114)" stroke="black" stroke-width="1" opacity="0.8"/><path transform="translate(137.5,46.15384615384616)" d="M19.43546310941348,0A19.43546310941348,19.43546310941348,0,1,1,-19.43546310941348,0A19.43546310941348,19.43546310941348,0,1,1,19.43546310941348,0" fill="rgb(246, 224, 114)" stroke="black" stroke-width="1" opacity="0.8"/><path transform="translate(137.5,323.0769230769231)" d="M19.00825790579291,0A19.00825790579291,19.00825790579291,0,1,1,-19.00825790579291,0A19.00825790579291,19.00825790579291,0,1,1,19.00825790579291,0" fill="rgb(246, 224, 114)" stroke="black" stroke-width="1" opacity="0.8"/><path transform="translate(137.5,230.76923076923077)" d="M24.315445213123464,0A24.315445213123464,24.315445213123464,0,1,1,-24.315445213123464,0A24.315445213123464,24.315445213123464,0,1,1,24.315445213123464,0" fill="rgb(246, 224, 114)" stroke="black" stroke-width="1" opacity="0.8"/><path transform="translate(137.5,384.61538461538464)" d="M17.509121710288426,0A17.509121710288426,17.509121710288426,0,1,1,-17.509121710288426,0A17.509121710288426,17.509121710288426,0,1,1,17.509121710288426,0" fill="rgb(246, 224, 114)" stroke="black" stroke-width="1" opacity="0.8"/><path transform="translate(137.5,353.8461538461538)" d="M9.926738940125375,0A9.926738940125375,9.926738940125375,0,1,1,-9.926738940125375,0A9.926738940125375,9.926738940125375,0,1,1,9.926738940125375,0" fill="rgb(239, 74, 60)" stroke="black" stroke-width="1" opacity="0.8"/><path transform="translate(137.5,15.384615384615387)" d="M23.860910831178064,0A23.860910831178064,23.860910831178064,0,1,1,-23.860910831178064,0A23.860910831178064,23.860910831178064,0,1,1,23.860910831178064,0" fill="rgb(246, 224, 114)" stroke="black" stroke-width="1" opacity="0.8"/><path transform="translate(137.5,76.92307692307693)" d="M27.185494199857963,0A27.185494199857963,27.185494199857963,0,1,1,-27.185494199857963,0A27.185494199857963,27.185494199857963,0,1,1,27.185494199857963,0" fill="rgb(246, 224, 114)" stroke="black" stroke-width="1" opacity="0.8"/><path transform="translate(137.5,261.53846153846155)" d="M20.927403192454673,0A20.927403192454673,20.927403192454673,0,1,1,-20.927403192454673,0A20.927403192454673,20.927403192454673,0,1,1,20.927403192454673,0" fill="rgb(246, 224, 114)" stroke="black" stroke-width="1" opacity="0.8"/><path transform="translate(137.5,292.30769230769226)" d="M21.57147345809471,0A21.57147345809471,21.57147345809471,0,1,1,-21.57147345809471,0A21.57147345809471,21.57147345809471,0,1,1,21.57147345809471,0" fill="rgb(246, 224, 114)" stroke="black" stroke-width="1" opacity="0.8"/><path transform="translate(137.5,200)" d="M18.423247769982375,0A18.423247769982375,18.423247769982375,0,1,1,-18.423247769982375,0A18.423247769982375,18.423247769982375,0,1,1,18.423247769982375,0" fill="rgb(239, 74, 60)" stroke="black" stroke-width="1" opacity="0.8"/><path transform="translate(137.5,169.23076923076923)" d="M14.03852883926243,0A14.03852883926243,14.03852883926243,0,1,1,-14.03852883926243,0A14.03852883926243,14.03852883926243,0,1,1,14.03852883926243,0" fill="rgb(246, 224, 114)" stroke="black" stroke-width="1" opacity="0.8"/><path transform="translate(137.5,107.6923076923077)" d="M14.23217286732941,0A14.23217286732941,14.23217286732941,0,1,1,-14.23217286732941,0A14.23217286732941,14.23217286732941,0,1,1,14.23217286732941,0" fill="rgb(246, 224, 114)" stroke="black" stroke-width="1" opacity="0.8"/><path transform="translate(275,46.15384615384616)" d="M19.575793185261148,0A19.575793185261148,19.575793185261148,0,1,1,-19.575793185261148,0A19.575793185261148,19.575793185261148,0,1,1,19.575793185261148,0" fill="rgb(246, 224, 114)" stroke="black" stroke-width="1" opacity="0.8"/><path transform="translate(275,138.46153846153845)" d="M16.87221185401355,0A16.87221185401355,16.87221185401355,0,1,1,-16.87221185401355,0A16.87221185401355,16.87221185401355,0,1,1,16.87221185401355,0" fill="rgb(246, 224, 114)" stroke="black" stroke-width="1" opacity="0.8"/><path transform="translate(275,323.0769230769231)" d="M19.294112410852897,0A19.294112410852897,19.294112410852897,0,1,1,-19.294112410852897,0A19.294112410852897,19.294112410852897,0,1,1,19.294112410852897,0" fill="rgb(239, 74, 60)" stroke="black" stroke-width="1" opacity="0.8"/><path transform="translate(275,230.76923076923077)" d="M24.981745160033874,0A24.981745160033874,24.981745160033874,0,1,1,-24.981745160033874,0A24.981745160033874,24.981745160033874,0,1,1,24.981745160033874,0" fill="rgb(246, 224, 114)" stroke="black" stroke-width="1" opacity="0.8"/><path transform="translate(275,384.61538461538464)" d="M19.294112410852897,0A19.294112410852897,19.294112410852897,0,1,1,-19.294112410852897,0A19.294112410852897,19.294112410852897,0,1,1,19.294112410852897,0" fill="rgb(246, 224, 114)" stroke="black" stroke-width="1" opacity="0.8"/><path transform="translate(275,15.384615384615387)" d="M16.709191491271227,0A16.709191491271227,16.709191491271227,0,1,1,-16.709191491271227,0A16.709191491271227,16.709191491271227,0,1,1,16.709191491271227,0" fill="rgb(246, 224, 114)" stroke="black" stroke-width="1" opacity="0.8"/><path transform="translate(275,353.8461538461538)" d="M19.85347788025075,0A19.85347788025075,19.85347788025075,0,1,1,-19.85347788025075,0A19.85347788025075,19.85347788025075,0,1,1,19.85347788025075,0" fill="rgb(246, 224, 114)" stroke="black" stroke-width="1" opacity="0.8"/><path transform="translate(275,76.92307692307693)" d="M16.544564900208957,0A16.544564900208957,16.544564900208957,0,1,1,-16.544564900208957,0A16.544564900208957,16.544564900208957,0,1,1,16.544564900208957,0" fill="rgb(246, 224, 114)" stroke="black" stroke-width="1" opacity="0.8"/><path transform="translate(275,261.53846153846155)" d="M27.386127875258307,0A27.386127875258307,27.386127875258307,0,1,1,-27.386127875258307,0A27.386127875258307,27.386127875258307,0,1,1,27.386127875258307,0" fill="rgb(246, 224, 114)" stroke="black" stroke-width="1" opacity="0.8"/><path transform="translate(275,292.30769230769226)" d="M12.157722606561732,0A12.157722606561732,12.157722606561732,0,1,1,-12.157722606561732,0A12.157722606561732,12.157722606561732,0,1,1,12.157722606561732,0" fill="rgb(239, 74, 60)" stroke="black" stroke-width="1" opacity="0.8"/><path transform="translate(275,107.6923076923077)" d="M11.930455415589032,0A11.930455415589032,11.930455415589032,0,1,1,-11.930455415589032,0A11.930455415589032,11.930455415589032,0,1,1,11.930455415589032,0" fill="rgb(224, 241, 242)" stroke="black" stroke-width="1" opacity="0.8"/><path transform="translate(275,169.23076923076923)" d="M10.198754754387712,0A10.198754754387712,10.198754754387712,0,1,1,-10.198754754387712,0A10.198754754387712,10.198754754387712,0,1,1,10.198754754387712,0" fill="rgb(246, 224, 114)" stroke="black" stroke-width="1" opacity="0.8"/><path transform="translate(275,200)" d="M18.123662799905308,0A18.123662799905308,18.123662799905308,0,1,1,-18.123662799905308,0A18.123662799905308,18.123662799905308,0,1,1,18.123662799905308,0" fill="rgb(246, 224, 114)" stroke="black" stroke-width="1" opacity="0.8"/><path transform="translate(412.5,138.46153846153845)" d="M11.69877403271869,0A11.69877403271869,11.69877403271869,0,1,1,-11.69877403271869,0A11.69877403271869,11.69877403271869,0,1,1,11.69877403271869,0" fill="rgb(246, 224, 114)" stroke="black" stroke-width="1" opacity="0.8"/><path transform="translate(412.5,46.15384615384616)" d="M15.342798305850684,0A15.342798305850684,15.342798305850684,0,1,1,-15.342798305850684,0A15.342798305850684,15.342798305850684,0,1,1,15.342798305850684,0" fill="rgb(246, 224, 114)" stroke="black" stroke-width="1" opacity="0.8"/><path transform="translate(412.5,323.0769230769231)" d="M14.797908710009702,0A14.797908710009702,14.797908710009702,0,1,1,-14.797908710009702,0A14.797908710009702,14.797908710009702,0,1,1,14.797908710009702,0" fill="rgb(246, 224, 114)" stroke="black" stroke-width="1" opacity="0.8"/><path transform="translate(412.5,230.76923076923077)" d="M14.03852883926243,0A14.03852883926243,14.03852883926243,0,1,1,-14.03852883926243,0A14.03852883926243,14.03852883926243,0,1,1,14.03852883926243,0" fill="rgb(239, 74, 60)" stroke="black" stroke-width="1" opacity="0.8"/><path transform="translate(412.5,384.61538461538464)" d="M21.187380902061754,0A21.187380902061754,21.187380902061754,0,1,1,-21.187380902061754,0A21.187380902061754,21.187380902061754,0,1,1,21.187380902061754,0" fill="rgb(239, 74, 60)" stroke="black" stroke-width="1" opacity="0.8"/><path transform="translate(412.5,353.8461538461538)" d="M16.544564900208957,0A16.544564900208957,16.544564900208957,0,1,1,-16.544564900208957,0A16.544564900208957,16.544564900208957,0,1,1,16.544564900208957,0" fill="rgb(239, 74, 60)" stroke="black" stroke-width="1" opacity="0.8"/><path transform="translate(412.5,15.384615384615387)" d="M8.754560855144213,0A8.754560855144213,8.754560855144213,0,1,1,-8.754560855144213,0A8.754560855144213,8.754560855144213,0,1,1,8.754560855144213,0" fill="rgb(239, 74, 60)" stroke="black" stroke-width="1" opacity="0.8"/><path transform="translate(412.5,76.92307692307693)" d="M9.359019226174953,0A9.359019226174953,9.359019226174953,0,1,1,-9.359019226174953,0A9.359019226174953,9.359019226174953,0,1,1,9.359019226174953,0" fill="rgb(246, 224, 114)" stroke="black" stroke-width="1" opacity="0.8"/><path transform="translate(412.5,261.53846153846155)" d="M24.539555436517137,0A24.539555436517137,24.539555436517137,0,1,1,-24.539555436517137,0A24.539555436517137,24.539555436517137,0,1,1,24.539555436517137,0" fill="rgb(246, 224, 114)" stroke="black" stroke-width="1" opacity="0.8"/><path transform="translate(412.5,169.23076923076923)" d="M23.162390860292543,0A23.162390860292543,23.162390860292543,0,1,1,-23.162390860292543,0A23.162390860292543,23.162390860292543,0,1,1,23.162390860292543,0" fill="rgb(246, 224, 114)" stroke="black" stroke-width="1" opacity="0.8"/><path transform="translate(412.5,107.6923076923077)" d="M18.571228040948316,0A18.571228040948316,18.571228040948316,0,1,1,-18.571228040948316,0A18.571228040948316,18.571228040948316,0,1,1,18.571228040948316,0" fill="rgb(239, 74, 60)" stroke="black" stroke-width="1" opacity="0.8"/><path transform="translate(412.5,292.30769230769226)" d="M16.040550803292035,0A16.040550803292035,16.040550803292035,0,1,1,-16.040550803292035,0A16.040550803292035,16.040550803292035,0,1,1,16.040550803292035,0" fill="rgb(246, 224, 114)" stroke="black" stroke-width="1" opacity="0.8"/><path transform="translate(412.5,200)" d="M21.316180756500344,0A21.316180756500344,21.316180756500344,0,1,1,-21.316180756500344,0A21.316180756500344,21.316180756500344,0,1,1,21.316180756500344,0" fill="rgb(246, 224, 114)" stroke="black" stroke-width="1" opacity="0.8"/></g><g class="mark-group role-legend" role="graphics-symbol" aria-roledescription="legend" aria-label="Gradient legend titled 'median word length' for fill color with values from 5.0 to 7.0"><g transform="translate(568,0)"><path class="background" aria-hidden="true" d="M0,0h95v216h-95Z" pointer-events="none"/><g><g class="mark-group role-legend-entry"><g transform="translate(0,16)"><path class="background" aria-hidden="true" d="M0,0h0v0h0Z" pointer-events="none"/><g><g class="mark-rect role-legend-gradient" pointer-events="none"><path d="M0,0h16v200h-16Z" fill="url(#gradient_4)" stroke="#ddd" stroke-width="0" opacity="0.8"/></g><g class="mark-text role-legend-label" pointer-events="none"><text text-anchor="start" transform="translate(18,197)" font-family="OpenSans" font-size="15px" fill="#000" opacity="1">5.0</text><text text-anchor="start" transform="translate(18,155)" font-family="OpenSans" font-size="15px" fill="#000" opacity="1">5.5</text><text text-anchor="start" transform="translate(18,105)" font-family="OpenSans" font-size="15px" fill="#000" opacity="1">6.0</text><text text-anchor="start" transform="translate(18,55)" font-family="OpenSans" font-size="15px" fill="#000" opacity="1">6.5</text><text text-anchor="start" transform="translate(18,12)" font-family="OpenSans" font-size="15px" fill="#000" opacity="1">7.0</text></g></g><path class="foreground" aria-hidden="true" d="" pointer-events="none" display="none"/></g></g><g class="mark-text role-legend-title" pointer-events="none"><text text-anchor="start" transform="translate(0,9)" font-family="OpenSans" font-size="11px" font-weight="bold" fill="#000" opacity="1">median word length</text></g></g><path class="foreground" aria-hidden="true" d="" pointer-events="none" display="none"/></g></g><g class="mark-group role-legend" role="graphics-symbol" aria-roledescription="legend" aria-label="Symbol legend titled 'sentence count' for size with values from 0 to 137"><g transform="translate(568,224)"><path class="background" aria-hidden="true" d="M0,0h80v276h-80Z" pointer-events="none"/><g><g class="mark-group role-legend-entry"><g transform="translate(0,16)"><path class="background" aria-hidden="true" d="M0,0h0v0h0Z" pointer-events="none"/><g><g class="mark-group role-scope" role="graphics-object" aria-roledescription="group mark container"><g transform="translate(0,0)"><path class="background" aria-hidden="true" d="M0,0h79.5v23.463701596227338h-79.5Z" pointer-events="none" opacity="1"/><g><g class="mark-symbol role-legend-symbol" pointer-events="none"><path transform="translate(26.5,11.5)" d="M10.463701596227336,0A10.463701596227336,10.463701596227336,0,1,1,-10.463701596227336,0A10.463701596227336,10.463701596227336,0,1,1,10.463701596227336,0" fill="black" fill-opacity="0.8" stroke="black" stroke-width="1.5" opacity="0.8"/></g><g class="mark-text role-legend-label" pointer-events="none"><text text-anchor="start" transform="translate(57,16.5)" font-family="OpenSans" font-size="15px" fill="#000" opacity="1">20</text></g></g><path class="foreground" aria-hidden="true" d="" pointer-events="none" display="none"/></g><g transform="translate(0,27)"><path class="background" aria-hidden="true" d="M0,0h79.5v32.2979087100097h-79.5Z" pointer-events="none" opacity="1"/><g><g class="mark-symbol role-legend-symbol" pointer-events="none"><path transform="translate(26.5,16)" d="M14.797908710009702,0A14.797908710009702,14.797908710009702,0,1,1,-14.797908710009702,0A14.797908710009702,14.797908710009702,0,1,1,14.797908710009702,0" fill="black" fill-opacity="0.8" stroke="black" stroke-width="1.5" opacity="0.8"/></g><g class="mark-text role-legend-label" pointer-events="none"><text text-anchor="start" transform="translate(57,21)" font-family="OpenSans" font-size="15px" fill="#000" opacity="1">40</text></g></g><path class="foreground" aria-hidden="true" d="" pointer-events="none" display="none"/></g><g transform="translate(0,63)"><path class="background" aria-hidden="true" d="M0,0h79.5v38.623662799905304h-79.5Z" pointer-events="none" opacity="1"/><g><g class="mark-symbol role-legend-symbol" pointer-events="none"><path transform="translate(26.5,19)" d="M18.123662799905308,0A18.123662799905308,18.123662799905308,0,1,1,-18.123662799905308,0A18.123662799905308,18.123662799905308,0,1,1,18.123662799905308,0" fill="black" fill-opacity="0.8" stroke="black" stroke-width="1.5" opacity="0.8"/></g><g class="mark-text role-legend-label" pointer-events="none"><text text-anchor="start" transform="translate(57,24)" font-family="OpenSans" font-size="15px" fill="#000" opacity="1">60</text></g></g><path class="foreground" aria-hidden="true" d="" pointer-events="none" display="none"/></g><g transform="translate(0,105)"><path class="background" aria-hidden="true" d="M0,0h79.5v44.427403192454676h-79.5Z" pointer-events="none" opacity="1"/><g><g class="mark-symbol role-legend-symbol" pointer-events="none"><path transform="translate(26.5,22)" d="M20.927403192454673,0A20.927403192454673,20.927403192454673,0,1,1,-20.927403192454673,0A20.927403192454673,20.927403192454673,0,1,1,20.927403192454673,0" fill="black" fill-opacity="0.8" stroke="black" stroke-width="1.5" opacity="0.8"/></g><g class="mark-text role-legend-label" pointer-events="none"><text text-anchor="start" transform="translate(57,27)" font-family="OpenSans" font-size="15px" fill="#000" opacity="1">80</text></g></g><path class="foreground" aria-hidden="true" d="" pointer-events="none" display="none"/></g><g transform="translate(0,153)"><path class="background" aria-hidden="true" d="M0,0h79.5v49.39754806543738h-79.5Z" pointer-events="none" opacity="1"/><g><g class="mark-symbol role-legend-symbol" pointer-events="none"><path transform="translate(26.5,24.5)" d="M23.39754806543738,0A23.39754806543738,23.39754806543738,0,1,1,-23.39754806543738,0A23.39754806543738,23.39754806543738,0,1,1,23.39754806543738,0" fill="black" fill-opacity="0.8" stroke="black" stroke-width="1.5" opacity="0.8"/></g><g class="mark-text role-legend-label" pointer-events="none"><text text-anchor="start" transform="translate(57,29.5)" font-family="OpenSans" font-size="15px" fill="#000" opacity="1">100</text></g></g><path class="foreground" aria-hidden="true" d="" pointer-events="none" display="none"/></g><g transform="translate(0,206)"><path class="background" aria-hidden="true" d="M0,0h79.5v53.63072973150281h-79.5Z" pointer-events="none" opacity="1"/><g><g class="mark-symbol role-legend-symbol" pointer-events="none"><path transform="translate(26.5,26.5)" d="M25.63072973150283,0A25.63072973150283,25.63072973150283,0,1,1,-25.63072973150283,0A25.63072973150283,25.63072973150283,0,1,1,25.63072973150283,0" fill="black" fill-opacity="0.8" stroke="black" stroke-width="1.5" opacity="0.8"/></g><g class="mark-text role-legend-label" pointer-events="none"><text text-anchor="start" transform="translate(57,31.5)" font-family="OpenSans" font-size="15px" fill="#000" opacity="1">120</text></g></g><path class="foreground" aria-hidden="true" d="" pointer-events="none" display="none"/></g></g></g><path class="foreground" aria-hidden="true" d="" pointer-events="none" display="none"/></g></g><g class="mark-text role-legend-title" pointer-events="none"><text text-anchor="start" transform="translate(0,9)" font-family="OpenSans" font-size="11px" font-weight="bold" fill="#000" opacity="1">sentence count</text></g></g><path class="foreground" aria-hidden="true" d="" pointer-events="none" display="none"/></g></g><g class="mark-group role-title"><g transform="translate(275,-33.47629544656267)"><path class="background" aria-hidden="true" d="M0,0h0v0h0Z" pointer-events="none"/><g><g class="mark-text role-title-text" role="graphics-symbol" aria-roledescription="title" aria-label="Title text 'Sentences per protocol by student'" pointer-events="none"><text text-anchor="middle" transform="translate(0,16)" font-family="OpenSans" font-size="20px" font-weight="bold" fill="#000000" opacity="1">Sentences per protocol by student</text></g></g><path class="foreground" aria-hidden="true" d="" pointer-events="none" display="none"/></g></g></g><path class="foreground" aria-hidden="true" d="" display="none"/></g></g></g><defs><linearGradient id="gradient_4" x1="0" x2="0" y1="1" y2="0"><stop offset="0" stop-color="rgb(224, 241, 242)"/><stop offset="0.04999999999999982" stop-color="rgb(213, 238, 228)"/><stop offset="0.10000000000000009" stop-color="rgb(202, 235, 215)"/><stop offset="0.1499999999999999" stop-color="rgb(192, 231, 198)"/><stop offset="0.20000000000000018" stop-color="rgb(184, 226, 179)"/><stop offset="0.25" stop-color="rgb(176, 222, 159)"/><stop offset="0.2999999999999998" stop-color="rgb(189, 223, 147)"/><stop offset="0.3500000000000001" stop-color="rgb(202, 224, 135)"/><stop offset="0.3999999999999999" stop-color="rgb(216, 225, 126)"/><stop offset="0.4500000000000002" stop-color="rgb(231, 224, 120)"/><stop offset="0.5" stop-color="rgb(246, 224, 114)"/><stop offset="0.5499999999999998" stop-color="rgb(246, 211, 102)"/><stop offset="0.6000000000000001" stop-color="rgb(246, 198, 89)"/><stop offset="0.6499999999999999" stop-color="rgb(245, 184, 79)"/><stop offset="0.7000000000000002" stop-color="rgb(244, 169, 70)"/><stop offset="0.75" stop-color="rgb(243, 153, 62)"/><stop offset="0.7999999999999998" stop-color="rgb(245, 138, 63)"/><stop offset="0.8500000000000001" stop-color="rgb(246, 123, 64)"/><stop offset="0.8999999999999999" stop-color="rgb(245, 108, 63)"/><stop offset="0.9500000000000002" stop-color="rgb(242, 91, 62)"/><stop offset="1" stop-color="rgb(239, 74, 60)"/></linearGradient></defs></svg>